<svg width="68" height="68" viewBox="0 0 68 68" fill="none" xmlns="http://www.w3.org/2000/svg">
<path d="M51.7197 59.8995V20.7868L54.7652 18.9786V58.2816L51.7197 59.8995Z" fill="#5A74FF"/>
<path d="M38.2197 63.115V24.0023L40.7184 22.5659V61.8296L38.2197 63.115Z" fill="#5A74FF"/>
<path d="M29.9515 3.61096L29.2769 4.001L26.5782 5.56381L25.9035 5.95122V6.72867V12.1866L17.1328 7.12134L16.4582 6.73394L15.7835 7.12134L13.0848 8.68415L12.4102 9.07419V9.85164V48.8085V49.5885L13.0848 49.9786L37.3729 63.9911L38.0449 64.3812L38.7196 63.9938L41.4182 62.4389L42.0955 62.0488V61.2687V55.8081L50.8662 60.8708L51.5383 61.2582L52.2129 60.8708L54.9116 59.3185L55.5889 58.9311V58.151V19.1968V18.4168L54.9142 18.0267L30.6262 4.001L29.9515 3.61096ZM29.9515 5.55854L53.5649 19.1968L51.5409 20.367L27.9249 6.7313L29.9515 5.55854ZM27.5902 7.31373L51.2036 20.952V59.1182L41.0835 53.2781V40.0378L43.2762 41.3028C43.3275 41.3324 43.3857 41.348 43.4449 41.348C43.5041 41.348 43.5623 41.3324 43.6135 41.3028L44.9629 40.5253C45.0142 40.4957 45.0568 40.453 45.0865 40.4017C45.1161 40.3503 45.1316 40.2921 45.1316 40.2328V37.1151C45.1317 37.0559 45.1162 36.9977 45.0868 36.9464L41.0835 30.0126V22.3172C41.0836 22.2579 41.0681 22.1997 41.0384 22.1483C41.0088 22.0969 40.9662 22.0543 40.9149 22.0247L27.5902 14.3292V7.31373ZM16.4582 8.68151L27.0842 14.8168C27.0936 14.8225 27.1033 14.8278 27.1132 14.8326L40.0715 22.3172L38.0475 23.4847L14.4342 9.85164L16.4582 8.68151ZM14.0968 10.4367L37.7102 24.0697V62.2386L14.0968 48.6134V10.4367ZM53.9022 19.7819V57.956L51.8782 59.1182V20.952L53.9022 19.7819ZM40.4089 22.9023V53.4731V61.0737L38.3849 62.2386V24.0697L40.4089 22.9023ZM41.0835 31.3646L44.4569 37.2073V40.0378L43.4449 40.6228L41.0835 39.2577V31.3646Z" fill="black"/>
<path d="M17.9795 41.8958V17.3507L34.5352 26.7811V51.3262L17.9795 41.8958Z" fill="white" stroke="black"/>
<path d="M27.1218 28.8457L26.865 28.9941L23.8972 30.7075L23.6961 30.8234L23.7604 31.0466L23.8236 31.2651L23.6659 31.1011L23.5048 30.9342L23.3037 31.0501L20.3359 32.7641L20.0791 32.9125L20.2275 33.1693L22.0082 36.2535L22.0829 36.3828L22.2313 36.4002L24.8554 36.7028L24.056 39.6253L23.9958 39.8456L24.194 39.9604L27.1618 41.6738L27.3102 41.7596L27.4585 41.6738L28.6456 40.9886L28.8317 40.8814L28.7877 40.671L28.6155 39.8433L29.1737 40.4235L29.3348 40.591L29.536 40.4745L32.5038 38.7617L32.7605 38.6133L32.6121 38.3559L30.8315 35.2722L30.7567 35.1424L30.6083 35.1256L28.0376 34.8288L29.0665 32.454L29.1256 32.3172L29.0508 32.1873L27.2702 29.1036L27.1218 28.8457ZM26.9861 29.3523L28.6926 32.3079L27.6342 32.9194L25.9277 29.9633L26.9861 29.3523ZM25.799 30.038L27.524 33.0255L26.3561 35.7232V35.7237C26.3531 35.7287 26.3508 35.7339 26.3491 35.7394C26.3457 35.7499 26.3446 35.7609 26.346 35.7719C26.3474 35.7828 26.3512 35.7933 26.3571 35.8025C26.3631 35.8118 26.371 35.8196 26.3803 35.8254C26.3897 35.8313 26.4002 35.8349 26.4111 35.8362C26.4129 35.8365 26.4146 35.8366 26.4163 35.8368L29.3418 36.1741L31.0668 39.1616L29.4009 40.1238L28.1721 38.8469L28.1715 38.8463C28.1707 38.8455 28.17 38.8447 28.1692 38.844L28.164 38.8388L26.4731 37.0819C26.4663 37.0747 26.4582 37.0689 26.4491 37.0649C26.4401 37.061 26.4303 37.0588 26.4204 37.0587C26.4093 37.0586 26.3984 37.061 26.3884 37.0657C26.3784 37.0704 26.3696 37.0773 26.3626 37.0859C26.3556 37.0944 26.3506 37.1044 26.348 37.1152C26.3453 37.1259 26.3451 37.1371 26.3474 37.1479L27.2041 41.2692L24.4293 39.6676L25.304 36.4669C25.3068 36.4566 25.3074 36.4458 25.3057 36.4353C25.304 36.4247 25.3 36.4147 25.2941 36.4059C25.2881 36.397 25.2804 36.3895 25.2713 36.3839C25.2622 36.3784 25.252 36.3748 25.2414 36.3735L22.3107 36.035L20.5857 33.0475L22.251 32.0865L25.1788 35.1974C25.1902 35.2095 25.2053 35.2173 25.2218 35.2197C25.2382 35.2222 25.2549 35.219 25.2693 35.2108C25.2837 35.2026 25.295 35.1898 25.3013 35.1745C25.3076 35.1591 25.3085 35.1421 25.304 35.1261L24.5128 32.3154L24.5122 32.3149L24.5099 32.3079L24.1331 30.9997L25.799 30.038ZM23.4387 31.4008L24.3748 32.3734L25.0791 34.8752L22.3832 32.01L23.4387 31.4008ZM28.637 32.5114L27.549 35.0247L26.5763 35.5864L27.6649 33.0725L28.637 32.5114ZM27.622 35.1534L30.3423 35.4675L29.3714 36.0281L26.6511 35.7139L27.622 35.1534ZM30.5475 35.5209L32.2539 38.4765L31.1955 39.0874L29.489 36.1318L30.5475 35.5209ZM26.5444 37.3694L28.0469 38.9309L28.4138 40.6936L27.3617 41.3011L26.5444 37.3694Z" fill="black"/>
</svg>
