<svg width="41" height="40" viewBox="0 0 41 40" fill="none" xmlns="http://www.w3.org/2000/svg">
<g clip-path="url(#clip0_9343_6809)">
<rect width="40" height="40" transform="translate(0.5)" fill="white"/>
<path d="M30.3637 12.7153C30.6544 11.7157 31.7103 11.1507 32.7032 11.4633C33.6682 11.7671 34.2122 12.7878 33.9262 13.7582L30.058 26.8868L26.4816 26.0626L30.3637 12.7153Z" fill="#0D0D0D"/>
<path d="M29.7185 13.4522L33.5303 14.5489L29.8998 26.8668L26.0589 25.978L29.7185 13.4522Z" fill="black" stroke="#0D0D0D" stroke-width="0.303947" stroke-linejoin="round"/>
<path d="M30.346 12.5631L24.1189 33.5664L21.8322 29.9779L18.2085 31.561L16.1681 28.3595L12.5795 29.9779L10.363 26.706L6.59863 28.3595L13.0016 7.77843C13.3722 6.79337 14.3385 6.00526 17.2937 6.79333L32.5623 11.3413C32.6116 11.354 32.6604 11.3685 32.7086 11.3849L32.5623 11.3413C31.7434 11.1304 30.7835 11.4288 30.346 12.5631Z" fill="white"/>
<path d="M33.7938 13.6537C34.2619 12.5915 33.5969 11.686 32.7086 11.3849M32.7086 11.3849C31.8609 11.0975 30.8098 11.3605 30.346 12.5631L24.1189 33.5664L21.8322 29.9779L18.2085 31.561L16.1681 28.3595L12.5795 29.9779L10.363 26.706L6.59863 28.3595L13.0016 7.77843C13.3722 6.79337 14.3385 6.00526 17.2937 6.79333L32.7086 11.3849Z" stroke="#0D0D0D" stroke-width="0.303947" stroke-linecap="round" stroke-linejoin="round"/>
<path d="M12.7908 15.5537L25.9135 19.494M12.228 17.6294L25.5265 21.5697M11.5596 19.494L24.7878 23.4343" stroke="#0D0D0D" stroke-width="0.303947" stroke-linecap="round" stroke-linejoin="round"/>
<path fill-rule="evenodd" clip-rule="evenodd" d="M8.10884 23.5057L6.59863 28.36L10.363 26.7065L12.5795 29.9783L16.1681 28.36L18.2085 31.5615L21.8322 29.9783L24.1189 33.5668L25.4953 28.9245L8.10884 23.5057ZM32.1974 11.283C32.3207 11.2911 32.443 11.311 32.5623 11.3418L32.7086 11.3853C32.6604 11.369 32.6116 11.3545 32.5623 11.3418L32.2116 11.2373L32.1974 11.283Z" fill="#5A74FF"/>
<path d="M6.59863 28.36L6.46477 28.3183C6.44845 28.3708 6.46426 28.4279 6.50522 28.4645C6.54617 28.5011 6.60473 28.5104 6.65501 28.4883L6.59863 28.36ZM8.10884 23.5057L8.15056 23.3719C8.11505 23.3608 8.0766 23.3643 8.04367 23.3816C8.01074 23.3989 7.98603 23.4285 7.97498 23.4641L8.10884 23.5057ZM10.363 26.7065L10.4791 26.6278C10.4411 26.5718 10.3686 26.5509 10.3066 26.5781L10.363 26.7065ZM12.5795 29.9783L12.4634 30.057C12.5017 30.1134 12.575 30.1342 12.6371 30.1061L12.5795 29.9783ZM16.1681 28.36L16.2863 28.2846C16.2489 28.2259 16.1739 28.2036 16.1104 28.2322L16.1681 28.36ZM18.2085 31.5615L18.0903 31.6368C18.1274 31.6951 18.2014 31.7176 18.2647 31.69L18.2085 31.5615ZM21.8322 29.9783L21.9504 29.903C21.9133 29.8448 21.8393 29.8222 21.776 29.8499L21.8322 29.9783ZM24.1189 33.5668L24.0007 33.6422C24.0302 33.6885 24.084 33.7133 24.1384 33.7057C24.1928 33.698 24.2377 33.6593 24.2533 33.6067L24.1189 33.5668ZM25.4953 28.9245L25.6297 28.9644C25.6515 28.8908 25.6102 28.8135 25.537 28.7907L25.4953 28.9245ZM32.1974 11.283L32.0636 11.2413C32.0508 11.2823 32.0575 11.3269 32.0818 11.3624C32.1061 11.3978 32.1453 11.4201 32.1882 11.4229L32.1974 11.283ZM32.7086 11.3853L32.6685 11.5197C32.7418 11.5415 32.819 11.5006 32.8422 11.4278C32.8653 11.355 32.8259 11.2771 32.7536 11.2525L32.7086 11.3853ZM32.2116 11.2373L32.2517 11.1029C32.1781 11.081 32.1006 11.1223 32.0778 11.1956L32.2116 11.2373ZM33.6656 13.5976C33.6343 13.6685 33.6665 13.7512 33.7373 13.7824C33.8082 13.8136 33.8909 13.7815 33.9221 13.7107L33.6656 13.5976ZM32.7536 11.2525C32.6802 11.2277 32.6006 11.267 32.5758 11.3403C32.5509 11.4136 32.5902 11.4932 32.6636 11.5181L32.7536 11.2525ZM6.7325 28.4016L8.24271 23.5473L7.97498 23.4641L6.46477 28.3183L6.7325 28.4016ZM10.3066 26.5781L6.54225 28.2316L6.65501 28.4883L10.4194 26.8348L10.3066 26.5781ZM12.6956 29.8997L10.4791 26.6278L10.247 26.7851L12.4634 30.057L12.6956 29.8997ZM16.1104 28.2322L12.5219 29.8505L12.6371 30.1061L16.2257 28.4878L16.1104 28.2322ZM18.3268 31.4861L16.2863 28.2846L16.0499 28.4353L18.0903 31.6368L18.3268 31.4861ZM21.776 29.8499L18.1524 31.433L18.2647 31.69L21.8883 30.1068L21.776 29.8499ZM24.2371 33.4915L21.9504 29.903L21.7139 30.0537L24.0007 33.6422L24.2371 33.4915ZM25.3609 28.8847L23.9845 33.527L24.2533 33.6067L25.6297 28.9644L25.3609 28.8847ZM25.537 28.7907L8.15056 23.3719L8.06713 23.6395L25.4535 29.0583L25.537 28.7907ZM32.5973 11.206C32.4697 11.1731 32.3388 11.1518 32.2066 11.1431L32.1882 11.4229C32.3025 11.4304 32.4162 11.4489 32.5274 11.4775L32.5973 11.206ZM32.7486 11.251L32.6023 11.2074L32.5223 11.4761L32.6685 11.5197L32.7486 11.251ZM32.5274 11.4775C32.5733 11.4893 32.6187 11.5029 32.6636 11.5181L32.7536 11.2525C32.7021 11.2351 32.65 11.2196 32.5973 11.206L32.5274 11.4775ZM32.1716 11.3717L32.5223 11.4761L32.6023 11.2074L32.2517 11.1029L32.1716 11.3717ZM32.0778 11.1956L32.0636 11.2413L32.3312 11.3247L32.3455 11.279L32.0778 11.1956ZM33.9221 13.7107C34.1737 13.1398 34.1226 12.6019 33.8826 12.1666C33.6448 11.7354 33.2265 11.4128 32.7536 11.2525L32.6636 11.5181C33.079 11.6589 33.4373 11.9397 33.6371 12.302C33.8346 12.6604 33.882 13.1064 33.6656 13.5976L33.9221 13.7107Z" fill="#0D0D0D"/>
</g>
<defs>
<clipPath id="clip0_9343_6809">
<rect width="40" height="40" fill="white" transform="translate(0.5)"/>
</clipPath>
</defs>
</svg>
