<svg width="41" height="40" viewBox="0 0 41 40" fill="none" xmlns="http://www.w3.org/2000/svg">
<rect width="40" height="40" transform="translate(0.5)" fill="white"/>
<path d="M11.7266 8.72656V16.0269L16.0611 16.0922V8.72656H11.7266Z" fill="#5A74FF" stroke="#3D3D3D" stroke-width="0.369478" stroke-linecap="round" stroke-linejoin="round"/>
<path d="M15.4614 8.2687C14.4487 8.0146 13.3894 8.0146 12.3767 8.2687C11.5242 8.51543 11.5242 8.92907 12.3767 9.19032C13.3903 9.43691 14.4478 9.43691 15.4614 9.19032C16.3139 8.92907 16.3139 8.50817 15.4614 8.2687Z" fill="#E0E0E0" stroke="#3D3D3D" stroke-width="0.369478" stroke-linecap="round" stroke-linejoin="round"/>
<path d="M20.5037 19.9598V32.0279L7.5 28.1673V16.0919L13.9224 11.9482L20.5037 19.9598Z" fill="white" stroke="#3D3D3D" stroke-width="0.369478" stroke-linecap="round" stroke-linejoin="round"/>
<path d="M13.9866 19.887C14.6088 20.0635 15.1568 20.4387 15.5478 20.9559C15.9388 21.4731 16.1516 22.104 16.1539 22.7534V30.736L11.8193 29.4515V21.469C11.8236 21.208 11.8882 20.9516 12.0081 20.72C12.1279 20.4885 12.2996 20.288 12.5098 20.1346C12.72 19.9812 12.9629 19.8789 13.2192 19.836C13.4755 19.793 13.7382 19.8105 13.9866 19.887Z" fill="black" stroke="black" stroke-width="0.369478" stroke-linecap="round" stroke-linejoin="round"/>
<path d="M33.493 16.0908V28.1662L20.4893 32.0268V19.9587L33.493 16.0908Z" fill="#5A74FF" stroke="#3D3D3D" stroke-width="0.369478" stroke-linecap="round" stroke-linejoin="round"/>
<path d="M26.8969 8.0791L33.4999 16.0616L20.4962 19.9295L13.9004 11.947L26.8969 8.0791Z" fill="white" stroke="#3D3D3D" stroke-width="0.369478" stroke-linecap="round" stroke-linejoin="round"/>
</svg>
